<?xml version="1.0" encoding="utf-8"?>
<!-- Generator: Adobe Illustrator 27.1.1, SVG Export Plug-In . SVG Version: 6.00 Build 0)  -->
<svg version="1.1" id="Слой_1" xmlns="http://www.w3.org/2000/svg" xmlns:xlink="http://www.w3.org/1999/xlink" x="0px" y="0px"
	 viewBox="0 0 788.28 242.41" style="enable-background:new 0 0 788.28 242.41;" xml:space="preserve">
<style type="text/css">
	.st0{fill:#41A62A;}
	.st1{fill:none;}
</style>
<g>
	<g>
		<path class="st0" d="M128.14,61.46v61.84v0.03l-0.01,0.01c-0.03,2.68-2.21,4.84-4.89,4.84h-7.38c-0.37,0-0.66,0.3-0.66,0.66v51.84
			c1.82,0.17,3.66,0.26,5.54,0.26c33.12,0,59.97-26.85,59.97-59.97C180.71,90.36,157.77,65.1,128.14,61.46z M126.92,153.69
			c-4.15,0-7.5-3.35-7.5-7.49c0-4.14,3.35-7.5,7.5-7.5c4.14,0,7.49,3.36,7.49,7.5C134.41,150.34,131.05,153.69,126.92,153.69z
			 M144.49,153.69c-4.13,0-7.49-3.35-7.49-7.49c0-4.14,3.36-7.5,7.49-7.5c4.14,0,7.5,3.36,7.5,7.5
			C152,150.34,148.63,153.69,144.49,153.69z M169.56,146.2c0,4.14-3.36,7.49-7.49,7.49c-4.14,0-7.5-3.35-7.5-7.49
			c0-4.14,3.36-7.5,7.5-7.5C166.2,138.7,169.56,142.06,169.56,146.2z"/>
		<path class="st0" d="M120.26,120.97c0.36,0,0.65-0.27,0.66-0.63l0.01-59.33l-0.2-0.01c-33.12,0-59.98,26.85-59.98,59.97
			c0,28.76,20.23,52.77,47.23,58.62v-53.82h0.01c0.05-2.59,2.12-4.69,4.7-4.79l0.01-0.01h2.5H120.26z M109.24,110.46
			c-4.14,0-7.49-3.36-7.49-7.5c0-4.14,3.36-7.5,7.49-7.5c4.14,0,7.5,3.36,7.5,7.5C116.74,107.1,113.38,110.46,109.24,110.46z"/>
		<rect x="240.07" y="61.01" class="st0" width="3.87" height="119.93"/>
		<polygon class="st0" points="302.78,173.72 306.33,173.72 306.33,155.29 315.21,155.29 315.21,173.72 318.76,173.72 
			318.76,152.11 302.78,152.11 		"/>
		<path class="st0" d="M341.55,155.05c-0.96-1.05-2.13-1.89-3.52-2.51c-1.39-0.63-2.95-0.94-4.68-0.94c-1.73,0-3.29,0.31-4.68,0.94
			c-1.39,0.63-2.56,1.47-3.52,2.51c-0.96,1.05-1.69,2.26-2.21,3.63c-0.51,1.37-0.77,2.78-0.77,4.24c0,1.46,0.26,2.87,0.77,4.24
			c0.51,1.37,1.25,2.58,2.21,3.63c0.96,1.05,2.13,1.89,3.52,2.51c1.39,0.63,2.95,0.94,4.68,0.94c1.73,0,3.29-0.31,4.68-0.94
			c1.39-0.63,2.56-1.47,3.52-2.51c0.96-1.05,1.69-2.26,2.21-3.63c0.51-1.37,0.77-2.78,0.77-4.24c0-1.46-0.26-2.88-0.77-4.24
			C343.25,157.3,342.51,156.09,341.55,155.05z M340.29,165.95c-0.34,0.98-0.83,1.85-1.48,2.61c-0.65,0.76-1.43,1.37-2.35,1.82
			s-1.95,0.68-3.1,0.68c-1.15,0-2.19-0.23-3.1-0.68c-0.92-0.45-1.7-1.06-2.34-1.82c-0.65-0.76-1.14-1.63-1.48-2.61
			s-0.51-1.99-0.51-3.04s0.17-2.06,0.51-3.04c0.34-0.98,0.83-1.85,1.48-2.61c0.65-0.76,1.43-1.37,2.34-1.82
			c0.92-0.45,1.95-0.68,3.1-0.68c1.15,0,2.19,0.23,3.1,0.68c0.92,0.45,1.7,1.06,2.35,1.82c0.65,0.76,1.14,1.63,1.48,2.61
			c0.34,0.98,0.51,1.99,0.51,3.04S340.63,164.98,340.29,165.95z"/>
		<path class="st0" d="M360.27,157.25c0.66-0.75,1.48-1.35,2.45-1.81c0.98-0.45,2.08-0.68,3.32-0.68c0.88,0,1.69,0.13,2.42,0.4
			c0.73,0.27,1.37,0.63,1.91,1.1c0.55,0.46,1,1.01,1.36,1.65c0.36,0.64,0.6,1.33,0.73,2.07h3.73c-0.16-1.17-0.51-2.27-1.03-3.29
			c-0.52-1.02-1.23-1.9-2.11-2.65c-0.88-0.75-1.95-1.35-3.19-1.79c-1.25-0.44-2.67-0.66-4.27-0.66c-1.71,0-3.24,0.31-4.58,0.94
			c-1.35,0.63-2.5,1.47-3.46,2.51c-0.96,1.05-1.69,2.25-2.19,3.61c-0.5,1.36-0.76,2.77-0.76,4.23c0,1.52,0.26,2.97,0.79,4.34
			c0.52,1.37,1.28,2.57,2.25,3.61c0.98,1.04,2.17,1.87,3.56,2.48c1.4,0.62,2.98,0.93,4.75,0.93c1.32,0,2.55-0.19,3.7-0.57
			c1.15-0.38,2.17-0.91,3.06-1.59c0.88-0.68,1.63-1.47,2.22-2.38c0.6-0.91,1.02-1.88,1.27-2.93h-3.89
			c-0.18,0.62-0.48,1.19-0.88,1.71c-0.4,0.52-0.87,0.98-1.4,1.36c-0.54,0.38-1.12,0.68-1.74,0.9c-0.63,0.22-1.25,0.32-1.87,0.32
			c-1.32,0-2.48-0.22-3.5-0.65c-1.02-0.43-1.87-1.02-2.56-1.77c-0.69-0.75-1.21-1.62-1.57-2.61c-0.36-0.99-0.54-2.04-0.54-3.15
			c0-1.05,0.17-2.06,0.52-3.04C359.11,158.87,359.61,158,360.27,157.25z"/>
		<path class="st0" d="M388.54,161.2c0.66-0.57,1.2-1.24,1.64-2.02l1.36-2.38c0.39-0.68,0.83-1.13,1.31-1.34
			c0.48-0.22,0.95-0.32,1.4-0.32h0.62v-3.18h-1.27c-1.13,0-2.1,0.32-2.92,0.97c-0.81,0.65-1.52,1.48-2.11,2.48l-1.7,2.81
			c-0.49,0.82-1.02,1.42-1.59,1.81c-0.57,0.38-1.17,0.57-1.81,0.57h-0.34v-8.49h-3.55v21.6h3.55v-10.18l7.87,10.18h4.54l-9.32-11.36
			C387.11,162.15,387.88,161.77,388.54,161.2z"/>
		<path class="st0" d="M415.31,155.05c-0.96-1.05-2.13-1.89-3.52-2.51c-1.39-0.63-2.95-0.94-4.68-0.94c-1.73,0-3.29,0.31-4.68,0.94
			c-1.39,0.63-2.56,1.47-3.52,2.51c-0.96,1.05-1.69,2.26-2.21,3.63c-0.51,1.37-0.77,2.78-0.77,4.24c0,1.46,0.26,2.87,0.77,4.24
			c0.51,1.37,1.25,2.58,2.21,3.63c0.96,1.05,2.13,1.89,3.52,2.51c1.39,0.63,2.95,0.94,4.68,0.94c1.73,0,3.29-0.31,4.68-0.94
			c1.39-0.63,2.56-1.47,3.52-2.51c0.96-1.05,1.69-2.26,2.21-3.63c0.51-1.37,0.77-2.78,0.77-4.24c0-1.46-0.26-2.88-0.77-4.24
			C417,157.3,416.26,156.09,415.31,155.05z M414.04,165.95c-0.34,0.98-0.83,1.85-1.48,2.61c-0.65,0.76-1.43,1.37-2.35,1.82
			c-0.92,0.45-1.95,0.68-3.1,0.68c-1.15,0-2.19-0.23-3.1-0.68c-0.92-0.45-1.7-1.06-2.34-1.82c-0.65-0.76-1.14-1.63-1.48-2.61
			s-0.51-1.99-0.51-3.04s0.17-2.06,0.51-3.04c0.34-0.98,0.83-1.85,1.48-2.61c0.65-0.76,1.43-1.37,2.34-1.82
			c0.92-0.45,1.95-0.68,3.1-0.68c1.15,0,2.19,0.23,3.1,0.68c0.92,0.45,1.7,1.06,2.35,1.82c0.65,0.76,1.14,1.63,1.48,2.61
			c0.34,0.98,0.51,1.99,0.51,3.04S414.38,164.98,414.04,165.95z"/>
		<path class="st0" d="M434.99,154.37c-0.67-0.7-1.47-1.25-2.41-1.65c-0.94-0.4-1.98-0.6-3.13-0.6h-7.75v21.6h3.55v-6.48h4.2
			c1.15,0,2.2-0.2,3.13-0.6c0.94-0.4,1.74-0.95,2.41-1.65c0.67-0.7,1.18-1.5,1.54-2.41c0.36-0.91,0.54-1.87,0.54-2.9
			c0-1.01-0.18-1.97-0.54-2.89C436.18,155.87,435.66,155.07,434.99,154.37z M433.23,161.36c-0.2,0.52-0.47,0.99-0.82,1.39
			c-0.35,0.4-0.78,0.72-1.28,0.96c-0.5,0.24-1.06,0.35-1.68,0.35h-4.2v-8.76h4.2c0.62,0,1.18,0.12,1.68,0.35
			c0.5,0.24,0.93,0.56,1.28,0.96c0.35,0.4,0.62,0.86,0.82,1.39c0.2,0.52,0.29,1.09,0.29,1.68
			C433.53,160.27,433.43,160.83,433.23,161.36z"/>
		<path class="st0" d="M458.39,155.05c-0.96-1.05-2.13-1.89-3.52-2.51c-1.39-0.63-2.95-0.94-4.68-0.94c-1.73,0-3.29,0.31-4.68,0.94
			c-1.39,0.63-2.56,1.47-3.52,2.51c-0.96,1.05-1.69,2.26-2.21,3.63c-0.51,1.37-0.77,2.78-0.77,4.24c0,1.46,0.26,2.87,0.77,4.24
			c0.51,1.37,1.25,2.58,2.21,3.63c0.96,1.05,2.13,1.89,3.52,2.51c1.39,0.63,2.95,0.94,4.68,0.94c1.73,0,3.29-0.31,4.68-0.94
			c1.39-0.63,2.56-1.47,3.52-2.51c0.96-1.05,1.69-2.26,2.21-3.63c0.51-1.37,0.77-2.78,0.77-4.24c0-1.46-0.26-2.88-0.77-4.24
			C460.08,157.3,459.34,156.09,458.39,155.05z M457.12,165.95c-0.34,0.98-0.83,1.85-1.48,2.61c-0.65,0.76-1.43,1.37-2.35,1.82
			c-0.92,0.45-1.95,0.68-3.1,0.68c-1.15,0-2.19-0.23-3.1-0.68s-1.7-1.06-2.34-1.82c-0.65-0.76-1.14-1.63-1.48-2.61
			c-0.34-0.98-0.51-1.99-0.51-3.04s0.17-2.06,0.51-3.04c0.34-0.98,0.83-1.85,1.48-2.61c0.65-0.76,1.43-1.37,2.34-1.82
			c0.92-0.45,1.95-0.68,3.1-0.68c1.15,0,2.19,0.23,3.1,0.68c0.92,0.45,1.7,1.06,2.35,1.82c0.65,0.76,1.14,1.63,1.48,2.61
			c0.34,0.98,0.51,1.99,0.51,3.04S457.46,164.98,457.12,165.95z"/>
		<path class="st0" d="M469.39,157.25c0.66-0.75,1.48-1.35,2.45-1.81c0.98-0.45,2.08-0.68,3.32-0.68c0.88,0,1.69,0.13,2.42,0.4
			c0.73,0.27,1.37,0.63,1.91,1.1c0.55,0.46,1,1.01,1.36,1.65c0.36,0.64,0.6,1.33,0.73,2.07h3.73c-0.16-1.17-0.51-2.27-1.03-3.29
			c-0.52-1.02-1.23-1.9-2.11-2.65c-0.88-0.75-1.95-1.35-3.19-1.79c-1.25-0.44-2.67-0.66-4.27-0.66c-1.71,0-3.24,0.31-4.58,0.94
			c-1.35,0.63-2.5,1.47-3.46,2.51c-0.96,1.05-1.69,2.25-2.19,3.61c-0.5,1.36-0.76,2.77-0.76,4.23c0,1.52,0.26,2.97,0.79,4.34
			c0.52,1.37,1.28,2.57,2.25,3.61c0.98,1.04,2.17,1.87,3.56,2.48c1.4,0.62,2.98,0.93,4.75,0.93c1.32,0,2.55-0.19,3.7-0.57
			c1.15-0.38,2.17-0.91,3.06-1.59c0.88-0.68,1.63-1.47,2.22-2.38c0.6-0.91,1.02-1.88,1.27-2.93h-3.89
			c-0.18,0.62-0.48,1.19-0.88,1.71c-0.4,0.52-0.87,0.98-1.4,1.36c-0.54,0.38-1.12,0.68-1.74,0.9c-0.63,0.22-1.25,0.32-1.87,0.32
			c-1.32,0-2.48-0.22-3.5-0.65c-1.02-0.43-1.87-1.02-2.56-1.77c-0.69-0.75-1.21-1.62-1.57-2.61c-0.36-0.99-0.54-2.04-0.54-3.15
			c0-1.05,0.17-2.06,0.52-3.04C468.22,158.87,468.73,158,469.39,157.25z"/>
		<polygon class="st0" points="485.37,155.29 490.71,155.29 490.71,173.72 494.26,173.72 494.26,155.29 499.63,155.29 
			499.63,152.11 485.37,152.11 		"/>
		<polygon class="st0" points="514.63,153.6 505.74,167.05 505.74,152.11 502.19,152.11 502.19,173.72 505.74,173.72 505.74,172.23 
			514.63,158.78 514.63,173.72 518.17,173.72 518.17,152.11 514.63,152.11 		"/>
		<polygon class="st0" points="542.8,153.52 533.91,166.97 533.91,152.04 530.36,152.04 530.36,173.64 533.91,173.64 533.91,172.16 
			542.8,158.7 542.8,173.64 546.35,173.64 546.35,152.04 542.8,152.04 		"/>
		<polygon class="st0" points="558.57,173.64 562.11,173.64 562.11,155.22 571,155.22 571,173.64 574.55,173.64 574.55,152.04 
			558.57,152.04 		"/>
		<path class="st0" d="M597.34,154.97c-0.96-1.05-2.13-1.89-3.52-2.51c-1.39-0.63-2.95-0.94-4.68-0.94s-3.29,0.31-4.68,0.94
			c-1.39,0.63-2.56,1.47-3.52,2.51c-0.96,1.05-1.69,2.26-2.21,3.63c-0.51,1.37-0.77,2.78-0.77,4.24s0.26,2.87,0.77,4.24
			c0.51,1.37,1.25,2.58,2.21,3.63c0.96,1.05,2.13,1.89,3.52,2.51c1.39,0.63,2.95,0.94,4.68,0.94s3.29-0.31,4.68-0.94
			c1.39-0.63,2.56-1.47,3.52-2.51c0.96-1.05,1.69-2.26,2.21-3.63c0.51-1.37,0.77-2.78,0.77-4.24s-0.26-2.87-0.77-4.24
			C599.03,157.23,598.3,156.02,597.34,154.97z M596.08,165.88c-0.34,0.98-0.83,1.85-1.48,2.61s-1.43,1.37-2.35,1.82
			c-0.92,0.45-1.95,0.68-3.1,0.68c-1.15,0-2.19-0.23-3.1-0.68s-1.7-1.06-2.34-1.82s-1.14-1.63-1.48-2.61
			c-0.34-0.98-0.51-1.99-0.51-3.04s0.17-2.06,0.51-3.04c0.34-0.98,0.83-1.85,1.48-2.61c0.65-0.76,1.43-1.37,2.34-1.82
			c0.92-0.45,1.95-0.68,3.1-0.68c1.15,0,2.19,0.23,3.1,0.68c0.92,0.45,1.7,1.06,2.35,1.82c0.65,0.76,1.14,1.63,1.48,2.61
			c0.34,0.98,0.51,1.99,0.51,3.04S596.41,164.9,596.08,165.88z"/>
		<path class="st0" d="M612.69,161.12c0.66-0.57,1.2-1.24,1.64-2.02l1.36-2.38c0.39-0.68,0.83-1.13,1.31-1.34
			c0.48-0.22,0.95-0.32,1.4-0.32h0.62v-3.18h-1.27c-1.13,0-2.1,0.32-2.92,0.97c-0.81,0.65-1.52,1.48-2.11,2.48l-1.7,2.81
			c-0.49,0.82-1.02,1.42-1.59,1.81c-0.57,0.38-1.17,0.57-1.81,0.57h-0.34v-8.49h-3.55v21.6h3.55v-10.18l7.87,10.18h4.54l-9.32-11.36
			C611.26,162.08,612.03,161.69,612.69,161.12z"/>
		<path class="st0" d="M635.7,154.29c-0.67-0.7-1.47-1.25-2.41-1.65c-0.94-0.4-1.98-0.6-3.13-0.6h-7.75v21.6h3.55v-6.48h4.2
			c1.15,0,2.2-0.2,3.13-0.6c0.94-0.4,1.74-0.95,2.41-1.65c0.67-0.7,1.18-1.5,1.54-2.41c0.36-0.91,0.54-1.87,0.54-2.9
			c0-1.01-0.18-1.97-0.54-2.89C636.88,155.8,636.37,154.99,635.7,154.29z M633.94,161.28c-0.2,0.52-0.47,0.99-0.82,1.39
			c-0.35,0.4-0.78,0.72-1.28,0.96c-0.5,0.24-1.06,0.35-1.68,0.35h-4.2v-8.76h4.2c0.62,0,1.18,0.12,1.68,0.35
			c0.5,0.24,0.93,0.56,1.28,0.96c0.35,0.4,0.62,0.86,0.82,1.39c0.2,0.52,0.29,1.09,0.29,1.68
			C634.23,160.19,634.13,160.75,633.94,161.28z"/>
		<rect x="656.11" y="152.04" class="st0" width="3.55" height="21.6"/>
		<path class="st0" d="M652.84,162.98c-0.56-0.57-1.22-1.02-2.01-1.36c-0.78-0.34-1.65-0.51-2.59-0.51h-3.89v-9.07h-3.55v21.6h7.44
			c0.95,0,1.81-0.16,2.59-0.49c0.78-0.33,1.45-0.78,2.01-1.36c0.56-0.58,0.98-1.24,1.28-2.01c0.3-0.76,0.45-1.56,0.45-2.41
			c0-0.84-0.15-1.65-0.45-2.41C653.82,164.21,653.4,163.54,652.84,162.98z M650.26,169.58c-0.5,0.61-1.18,0.91-2.02,0.91h-3.89
			v-6.23h3.89c0.84,0,1.52,0.3,2.02,0.91c0.5,0.61,0.76,1.34,0.76,2.21C651.02,168.24,650.77,168.97,650.26,169.58z"/>
		<polygon class="st0" points="662.22,155.22 667.56,155.22 667.56,173.64 671.11,173.64 671.11,155.22 676.48,155.22 
			676.48,152.04 662.22,152.04 		"/>
		<polygon class="st0" points="691.48,153.52 682.59,166.97 682.59,152.04 679.04,152.04 679.04,173.64 682.59,173.64 
			682.59,172.16 691.48,158.7 691.48,173.64 695.02,173.64 695.02,152.04 691.48,152.04 		"/>
		<path class="st0" d="M728.2,158.59c-0.51-1.37-1.25-2.58-2.21-3.63c-0.96-1.05-2.13-1.89-3.52-2.51
			c-1.39-0.63-2.95-0.94-4.68-0.94c-1.58,0-3.02,0.27-4.32,0.8c-1.3,0.54-2.42,1.25-3.36,2.14s-1.71,1.93-2.28,3.12
			c-0.58,1.18-0.95,2.43-1.11,3.75h-3.64v-9.29h-3.55v21.6h3.55v-9.13h3.64c0.19,1.3,0.57,2.53,1.16,3.7
			c0.59,1.17,1.35,2.2,2.3,3.09c0.95,0.88,2.06,1.58,3.33,2.1c1.28,0.51,2.7,0.77,4.29,0.77c1.73,0,3.29-0.31,4.68-0.94
			c1.39-0.63,2.56-1.47,3.52-2.51c0.96-1.05,1.69-2.26,2.21-3.63c0.51-1.37,0.77-2.78,0.77-4.24S728.71,159.96,728.2,158.59z
			 M724.73,165.88c-0.34,0.98-0.83,1.85-1.48,2.61s-1.43,1.37-2.35,1.82s-1.95,0.68-3.1,0.68c-1.15,0-2.19-0.23-3.1-0.68
			c-0.92-0.45-1.7-1.06-2.35-1.82c-0.65-0.76-1.14-1.63-1.48-2.61c-0.34-0.98-0.51-1.99-0.51-3.04s0.17-2.06,0.51-3.04
			c0.34-0.98,0.83-1.85,1.48-2.61c0.65-0.76,1.43-1.37,2.35-1.82c0.91-0.45,1.95-0.68,3.1-0.68c1.15,0,2.19,0.23,3.1,0.68
			c0.92,0.45,1.7,1.06,2.35,1.82c0.65,0.76,1.14,1.63,1.48,2.61c0.34,0.98,0.51,1.99,0.51,3.04S725.07,164.9,724.73,165.88z"/>
		<path class="st0" d="M665.59,112.36c12.57,0,22.75-10.19,22.75-22.75c0-12.57-10.19-22.75-22.75-22.75
			c-12.57,0-22.75,10.19-22.75,22.75C642.84,102.17,653.02,112.36,665.59,112.36z M665.59,79.53c5.56,0,10.08,4.52,10.08,10.08
			c0,5.56-4.52,10.08-10.08,10.08c-5.56,0-10.08-4.52-10.08-10.08C655.51,84.05,660.03,79.53,665.59,79.53z"/>
		<rect x="643.09" y="124.77" class="st0" width="45.19" height="12.44"/>
		<polygon class="st0" points="592.85,92.77 617.64,137.22 633.77,137.22 633.77,67.08 618.54,67.08 618.54,112.31 593.73,66.85 
			577.53,66.85 577.53,137.22 592.85,137.22 		"/>
		<path class="st0" d="M712.29,91.77v45.45h15.23V66.85h-15.23v2.42c-0.17,6.48-6.2,12.97-12.68,12.97l-3.21-0.06v13.91h3.21
			C704.3,96.08,708.6,94.39,712.29,91.77z"/>
		<polygon class="st0" points="309.54,77.23 315.23,93.82 320.72,93.82 326.24,77.35 326.24,93.82 332.96,93.82 332.96,66.88 
			325.13,66.88 317.97,86.01 310.81,66.88 302.78,66.88 302.78,93.82 309.54,93.82 		"/>
		<path class="st0" d="M351.34,94.59c9.04,0,14.39-6.58,14.39-14.24c0-7.66-5.35-14.24-14.39-14.24s-14.39,6.58-14.39,14.24
			C336.95,88.01,342.3,94.59,351.34,94.59z M351.34,72.28c4.76,0,7.34,3.69,7.34,8.05c0,4.37-2.58,8.05-7.34,8.05
			c-4.8,0-7.37-3.69-7.34-8.05C343.97,75.97,346.55,72.28,351.34,72.28z"/>
		<path class="st0" d="M390.51,85.74c0-4.39-3.16-7.89-7.89-7.89h-6v-5.57h11.54v-5.39h-18.27v26.93h12.73
			C387.32,93.82,390.51,90.2,390.51,85.74z M376.62,88.95v-6.43h4.09c1.86,0,3.07,1.39,3.07,3.18c0,1.83-1.21,3.25-3.07,3.25H376.62
			z"/>
		<polygon class="st0" points="401.9,92.85 411.21,77.93 411.21,93.82 417.95,93.82 417.95,66.88 411.21,66.88 411.21,67.85 
			401.9,82.77 401.9,66.88 395.2,66.88 395.2,93.82 401.9,93.82 		"/>
		<path class="st0" d="M432.68,82.77V72.28h7.16v21.54h6.73V66.88h-20.61v15.93c0,4.19-1.15,5.92-3.27,5.92h-0.96v5.42h2.31
			C428.95,94.16,432.68,90.78,432.68,82.77z"/>
		<path class="st0" d="M471.86,85.74c0-4.42-3.35-8.08-8.12-8.08h-5.77V66.88h-6.73v26.93h12.5
			C468.48,93.82,471.86,90.12,471.86,85.74z M457.97,88.92v-6.36h4.12c1.84,0,3.04,1.37,3.04,3.15c0,1.84-1.19,3.22-3.04,3.22
			H457.97z"/>
		<polygon class="st0" points="482.98,83.12 492.3,83.12 492.3,93.82 499.06,93.82 499.06,66.88 492.3,66.88 492.3,77.77 
			482.98,77.77 482.98,66.88 476.26,66.88 476.26,93.82 482.98,93.82 		"/>
		<rect x="527.04" y="66.88" class="st0" width="6.73" height="26.93"/>
		<path class="st0" d="M525.08,85.74c0-4.42-3.35-8.08-8.12-8.08h-5.77V66.88h-6.73v26.93h12.5
			C521.69,93.82,525.08,90.12,525.08,85.74z M511.19,88.92v-6.36h4.12c1.84,0,3.04,1.37,3.04,3.15c0,1.84-1.19,3.22-3.04,3.22
			H511.19z"/>
		<rect x="545.88" y="61.65" class="st0" width="9.29" height="3.54"/>
		<polygon class="st0" points="545.9,92.76 555.21,77.83 555.21,93.82 561.95,93.82 561.95,66.88 555.21,66.88 555.21,67.8 
			545.9,82.72 545.9,66.88 539.17,66.88 539.17,93.82 545.9,93.82 		"/>
		<polygon class="st0" points="363.85,137.13 372.25,137.13 372.25,103.52 343.84,103.52 343.84,137.13 352.28,137.13 
			352.28,110.25 363.85,110.25 		"/>
		<polygon class="st0" points="400.12,130.41 387.34,130.41 387.34,123.8 400.12,123.8 400.12,117.07 387.34,117.07 387.34,110.22 
			400.12,110.22 400.12,103.52 378.98,103.52 378.98,137.13 400.12,137.13 		"/>
		<path class="st0" d="M422.26,103.52h-14.93v33.61h8.4v-9.32h6.53c6.96,0,12.05-5.09,12.05-12.15S429.28,103.52,422.26,103.52z
			 M420.73,121.11h-4.99v-10.89h4.99c2.92,0,5.04,2.29,5.04,5.44S423.65,121.11,420.73,121.11z"/>
		<path class="st0" d="M444.24,133.05h11.91l1.15,4.08h8.78l-11.43-33.61h-8.95l-11.38,33.61h8.77L444.24,133.05z M450.19,112.02
			l4.06,14.34h-8.11L450.19,112.02z"/>
		<polygon class="st0" points="482.12,137.13 482.12,110.25 491.03,110.25 491.03,103.52 464.81,103.52 464.81,110.25 
			473.72,110.25 473.72,137.13 		"/>
		<path class="st0" d="M562.59,115.67c0-7.06-5.04-12.15-12.05-12.15h-14.93v33.61h8.4v-9.32h6.53
			C557.5,127.81,562.59,122.72,562.59,115.67z M549.08,121.19h-5.07v-11.05h5.07c2.97,0,5.11,2.33,5.11,5.52
			C554.19,118.86,552.04,121.19,549.08,121.19z"/>
		<path class="st0" d="M337.95,120.32c0-9.56-6.67-17.77-17.96-17.77c-11.28,0-17.96,8.21-17.96,17.77
			c0,9.56,6.67,17.77,17.96,17.77C331.28,138.09,337.95,129.88,337.95,120.32z M319.99,130.35c-5.99,0-9.2-4.6-9.16-10.05
			c-0.04-5.45,3.17-10.05,9.16-10.05c5.94,0,9.16,4.6,9.16,10.05C329.15,125.75,325.93,130.35,319.99,130.35z"/>
		<path class="st0" d="M511.71,102.56c-11.28,0-17.96,8.21-17.96,17.77c0,9.55,6.67,17.77,17.96,17.77
			c11.28,0,17.96-8.21,17.96-17.77C529.66,110.77,522.99,102.56,511.71,102.56z M511.71,130.35c-5.99,0-9.2-4.6-9.16-10.05
			c-0.04-5.45,3.17-10.05,9.16-10.05c5.94,0,9.16,4.6,9.16,10.05C520.86,125.75,517.65,130.35,511.71,130.35z"/>
	</g>
	<g>
		<rect class="st1" width="788.28" height="242.41"/>
	</g>
</g>
</svg>
